<svg width="800" height="800" viewBox="0 0 800 800" fill="none" xmlns="http://www.w3.org/2000/svg">
<g clip-path="url(#clip0_108_37)">
<path d="M759.992 0H39.9958C17.9039 0 0 17.9039 0 39.9958V759.992C0 782.084 17.9039 799.988 39.9958 799.988H759.992C782.084 799.988 799.988 782.084 799.988 759.992V39.9958C799.988 17.9039 782.084 0 759.992 0ZM571.077 394.198C557.241 480.922 542.193 575.721 542.193 575.721C542.193 575.721 539.877 602.325 520.233 606.921C499.197 606.597 478.858 599.277 462.43 586.125C457.786 582.645 375.706 530.649 345.67 505.209C335.65 498.454 333.022 484.846 339.778 474.838C341.602 472.126 344.014 469.87 346.834 468.214C388.438 430.054 438.154 382.654 468.19 352.618C482.074 338.734 495.946 306.382 438.154 345.694C356.074 402.334 275.159 455.494 275.159 455.494C258.323 463.09 239.111 463.51 221.963 456.658C187.283 446.254 146.843 432.382 146.843 432.382C146.843 432.382 119.087 415.066 166.487 396.382C166.487 396.382 366.49 314.302 435.85 285.419C462.454 273.863 552.609 236.855 552.609 236.855C552.609 236.855 594.249 220.655 590.769 259.979C589.605 276.335 580.365 332.974 571.089 394.222L571.077 394.198Z" fill="black"/>
</g>
<defs>
<clipPath id="clip0_108_37">
<rect width="800" height="800" fill="white"/>
</clipPath>
</defs>
</svg>
