<svg width="152" height="46" viewBox="0 0 152 46" fill="none" xmlns="http://www.w3.org/2000/svg">
<g clip-path="url(#clip0_565_50)">
<path d="M146.227 46H152L140.456 0H134.683L129.633 20.1248H121.215V0H115.442V20.1248H98.1257V0H92.3531V20.1248H80.8091L90.4297 5.74929V0H61.5691V5.75043H84.6583L75.0377 20.1259H50.0251L59.6457 5.75043V0H30.7851V5.75043H53.8743L44.2537 20.1259H5.77257V5.75043H28.8606V0H0V46H28.8606V40.2496H5.77257V25.8741H40.4046L30.784 40.2496V46H59.6446V40.2496H36.5554L46.176 25.8741H71.1886L61.568 40.2496V46H90.4286V40.2496H67.3394L76.96 25.8741H92.352V45.9989H98.1246V25.8752H115.441V46H121.214V25.8752H128.189L123.138 46H128.911L133.961 25.8752H141.176L146.226 46H146.227ZM135.405 20.1248L137.569 11.4997L139.734 20.1248H135.405Z" fill="black"/>
</g>
<defs>
<clipPath id="clip0_565_50">
<rect width="152" height="46" fill="white"/>
</clipPath>
</defs>
</svg>
