<svg width="800" height="800" viewBox="0 0 800 800" fill="none" xmlns="http://www.w3.org/2000/svg">
<g clip-path="url(#clip0_108_21)">
<path d="M500.156 395.938C486.719 393.594 472.656 393.906 458.906 394.688C427.656 396.406 396.406 399.375 365.156 396.563C350.312 395.156 335.312 393.75 320.312 394.063C293.125 394.531 270.312 403.438 256.875 429.375C250.156 442.188 248.594 455.938 249.062 470.156C250.156 510.156 267.5 532.969 305.625 544.375C336.25 553.438 367.656 554.688 399.219 554.063C410.937 554.063 422.656 554.688 434.375 553.906C458.594 552.5 482.344 548.906 505.312 540.469C529.062 531.719 543.281 515 548.437 490.781C550.469 481.406 551.406 471.563 551.25 462.031C550.937 429.688 529.062 400.781 500.156 395.938ZM346.406 501.719C336.25 512.813 321.562 512.969 311.094 502.188C303.437 494.375 299.062 482.344 299.062 467.344C299.375 457.188 302.344 446.094 311.094 437.188C321.562 426.406 336.25 426.563 346.406 437.5C361.719 454.063 361.719 485.156 346.406 501.719ZM488.437 502.5C478.906 512.344 465.156 512.656 455 503.594C437.5 487.656 437.5 452.188 455 436.094C465 426.875 478.75 427.188 488.437 437.031C497.344 446.094 500.312 457.5 500.781 469.688C500.312 482.031 497.187 493.281 488.437 502.5Z" fill="black"/>
<path d="M737.5 0H62.5C27.9687 0 0 27.9687 0 62.5V737.5C0 772.031 27.9687 800 62.5 800H737.5C772.031 800 800 772.031 800 737.5V62.5C800 27.9687 772.031 0 737.5 0ZM605 435C602.813 452.812 599.062 471.094 592.656 487.813C573.906 535.781 536.406 562.187 486.719 570.156C458.281 574.687 429.062 574.844 397.5 577.188C369.219 574.688 338.125 574.375 307.969 569.063C249.531 558.75 209.844 517.812 198.281 459.219C192.344 429.375 190.625 399.375 199.844 369.688C204.688 354.375 212.656 340.781 222.969 328.438C224.375 326.875 225.625 324.531 225.469 322.5C223.75 295.625 226.875 269.062 234.844 243.437C241.406 222.031 236.563 223.281 260.313 229.531C288.906 237.031 313.906 252.5 338.438 268.594C341.25 270.469 345.625 271.25 349.062 270.625C383.75 265.313 418.281 265 452.969 271.094C455.469 271.563 458.75 270.625 461.094 269.219C482.188 255.469 503.906 243.125 527.656 234.531C536.25 231.406 545.313 229.375 554.063 226.719C557.969 225.625 559.688 227.031 561.094 230.781C571.719 260.469 576.094 290.937 574.531 322.344C574.375 324.062 575.312 326.406 576.406 327.812C603.125 358.75 609.844 395.625 605 435Z" fill="black"/>
</g>
<defs>
<clipPath id="clip0_108_21">
<rect width="800" height="800" fill="white"/>
</clipPath>
</defs>
</svg>
