<svg width="800" height="800" viewBox="0 0 800 800" fill="none" xmlns="http://www.w3.org/2000/svg">
<g clip-path="url(#clip0_108_25)">
<path d="M400 470.313C438.75 470.313 470.469 438.75 470.469 399.844C470.469 384.531 465.469 370.313 457.188 358.75C444.375 341.094 423.594 329.375 400.156 329.375C376.719 329.375 355.937 340.938 343.125 358.75C334.844 370.313 329.844 384.531 329.844 399.844C329.687 438.75 361.25 470.313 400 470.313Z" fill="black"/>
<path d="M553.75 313.906V254.844V246.094H545L485.938 246.25L486.25 314.062L553.75 313.906Z" fill="black"/>
<path d="M737.5 0H62.5C27.9687 0 0 27.9687 0 62.5V737.5C0 772.031 27.9687 800 62.5 800H737.5C772.031 800 800 772.031 800 737.5V62.5C800 27.9687 772.031 0 737.5 0ZM600 358.906V522.656C600 565.312 565.312 600 522.656 600H277.344C234.688 600 200 565.312 200 522.656V358.906V277.187C200 234.531 234.688 199.844 277.344 199.844H522.656C565.312 199.844 600 234.531 600 277.187V358.906Z" fill="black"/>
<path d="M509.375 400C509.375 460.312 460.312 509.375 400 509.375C339.688 509.375 290.625 460.312 290.625 400C290.625 385.469 293.594 371.563 298.75 358.906H239.062V522.656C239.062 543.75 256.25 560.937 277.344 560.937H522.656C543.75 560.937 560.938 543.75 560.938 522.656V358.906H501.25C506.563 371.563 509.375 385.469 509.375 400Z" fill="black"/>
</g>
<defs>
<clipPath id="clip0_108_25">
<rect width="800" height="800" fill="white"/>
</clipPath>
</defs>
</svg>
